<svg width="44" height="32" viewBox="0 0 44 32" fill="none" xmlns="http://www.w3.org/2000/svg">
<path opacity="0.5" d="M18.6028 0C18.2695 0 17.9362 0.260712 17.9362 0.651781V5.21425H7.93727C7.53732 5.21425 7.27068 5.47496 7.27068 5.86603V10.4285H2.60452C2.27122 10.4285 1.93793 10.7544 1.93793 11.0803V15.6427H1.47131C1.13801 15.6427 0.871375 15.8383 0.804716 16.1642C0.738056 16.3597 -0.395154 21.5088 2.8045 25.8105C5.13758 28.9391 9.13714 30.7641 14.6032 31.2203C15.3365 31.2855 16.0031 31.2855 16.6697 31.2855C29.9349 31.2855 35.2676 20.14 36.3342 17.6633C41.5336 18.0543 43.1334 13.9481 43.1334 13.9481C43.2001 13.6874 43.1334 13.4267 42.9335 13.2312C40.867 11.5365 38.8672 11.4713 37.4674 11.9276C37.6007 8.9294 34.4011 6.77852 34.2677 6.71334C34.2011 6.51781 34.0011 6.51781 33.8678 6.51781C33.6678 6.58299 33.5345 6.64816 33.4678 6.77852C30.7348 10.8196 31.868 13.6874 32.4679 14.8606C31.4014 15.6427 30.0682 15.6427 30.0015 15.6427H29.9349V11.0803C29.9349 10.7544 29.6016 10.4285 29.2683 10.4285H24.6021V0.651781C24.6021 0.260712 24.2688 0 23.9355 0H18.6028ZM19.2694 1.30356H23.2689V5.21425H19.2694V1.30356ZM8.60387 6.51781H17.9362V10.4285H13.9366V8.47315C13.9366 8.08208 13.67 7.82137 13.27 7.82137C12.8701 7.82137 12.6034 8.08208 12.6034 8.47315V10.4285H8.60387V6.51781ZM19.2694 6.51781H23.2689V15.6427H19.2694V11.7321H21.2692C21.6025 11.7321 21.9357 11.4062 21.9357 11.0803C21.9357 10.7544 21.6025 10.4285 21.2692 10.4285H19.2694V6.51781ZM34.1344 8.14726C35.0676 8.9294 36.8008 10.7544 36.0009 12.8401C35.8676 13.1008 36.0009 13.4267 36.2009 13.6222C36.4675 13.8178 36.8008 13.8178 37.0008 13.6222C37.0674 13.557 39.1339 12.0579 41.7336 13.9481C41.2003 14.8606 39.6671 16.8811 36.0009 16.3597C35.6676 16.2945 35.4009 16.4901 35.2676 16.8159C35.2676 16.8811 30.7348 29.9819 16.7363 29.9819C16.0697 29.9819 15.4698 29.9819 14.7365 29.9167C9.67042 29.4605 6.07081 27.831 3.93771 25.0284C1.67129 21.965 1.87127 18.2499 2.07124 16.9463H2.60452H29.2683H29.9349C30.0015 16.9463 32.268 17.0115 33.7345 15.4472C33.9344 15.1865 34.0011 14.8606 33.7345 14.5999C33.8011 14.5347 31.8013 12.1231 34.1344 8.14726ZM3.27111 11.7321H7.27068V15.6427H3.27111V11.7321ZM8.60387 11.7321H12.6034V15.6427H8.60387V11.7321ZM13.9366 11.7321H17.9362V15.6427H13.9366V11.7321ZM24.6021 11.7321H28.6017V15.6427H24.6021V11.7321ZM8.93716 20.2052C8.00393 20.2052 7.27068 20.9222 7.27068 21.8347C7.27068 22.7472 8.00393 23.4641 8.93716 23.4641C9.8704 23.4641 10.6036 22.7472 10.6036 21.8347C10.6036 20.9222 9.8704 20.2052 8.93716 20.2052ZM28.8017 20.5311C28.6017 20.5311 28.4684 20.5963 28.335 20.7266C28.0684 20.9873 28.1351 21.4436 28.4017 21.6391L29.4016 22.4864C29.5349 22.6168 29.6682 22.6168 29.8016 22.6168C30.0015 22.6168 30.2015 22.5516 30.3348 22.3561C30.6015 22.1606 30.6015 21.7695 30.2682 21.5088L29.2683 20.6615C29.135 20.5963 29.0016 20.5311 28.8017 20.5311ZM26.6019 22.7472C26.4019 22.7472 26.2686 22.7472 26.1353 22.8775C25.8687 23.073 25.802 23.5293 26.0686 23.79L26.9352 24.8329C27.0685 24.9632 27.2685 25.0936 27.4685 25.0936C27.6018 25.0936 27.7351 25.0284 27.8684 24.9632C28.1351 24.7677 28.2017 24.3114 27.9351 24.0507L27.0685 23.0079C26.9352 22.8775 26.8019 22.7472 26.6019 22.7472ZM23.8022 24.4418C23.7355 24.4418 23.6022 24.4418 23.5356 24.507C23.2023 24.7025 23.069 25.0936 23.2689 25.3543L23.8689 26.5275C24.0022 26.723 24.2022 26.8534 24.4688 26.8534C24.6021 26.8534 24.6688 26.8534 24.8021 26.7882C25.1354 26.5927 25.2687 26.2016 25.0687 25.9409L24.4688 24.7677C24.3355 24.5721 24.0688 24.4418 23.8022 24.4418ZM20.9359 25.5498C20.8692 25.5498 20.7359 25.5498 20.6692 25.5498C20.3359 25.615 20.0693 26.0061 20.2026 26.3319L20.5359 27.5703C20.6026 27.8962 20.8692 28.0918 21.2025 28.0918C21.2692 28.0918 21.3358 28.0918 21.4025 28.0918C21.7358 28.0266 22.0024 27.6355 21.8691 27.3096L21.4691 26.0712C21.4025 25.8105 21.2025 25.615 20.9359 25.5498ZM17.6029 26.0712C17.2029 26.0712 16.9363 26.3971 17.003 26.723L17.0696 28.0266C17.0696 28.3525 17.4029 28.6132 17.7362 28.6132C17.7362 28.6132 17.7362 28.6132 17.8029 28.6132C18.2028 28.6132 18.4695 28.2873 18.4028 27.9614L18.3361 26.6578C18.3361 26.2668 18.0028 26.0061 17.6029 26.0712Z" fill="white"/>
</svg>
