<svg width="29" height="32" viewBox="0 0 29 32" fill="none" xmlns="http://www.w3.org/2000/svg">
<path opacity="0.5" d="M21.5013 0C20.1067 0 18.9162 0.374066 18.0659 0.748131C17.2836 0.476083 15.923 0 14.2903 0.34006C13.338 0.510089 12.4876 0.884155 11.6713 1.49626C10.3448 0.850149 8.9842 0.476083 7.55562 0.408072C6.67126 0.34006 3.06581 0.748131 1.77328 2.65246C1.29709 3.4006 0.820899 4.35276 0.616817 5.50897C0.412734 6.52914 0.412734 7.68535 0.752872 10.0658C0.956954 11.698 1.22906 12.7862 1.84131 15.0306C1.90934 15.2347 2.24948 16.3229 3.26989 19.3154C3.47397 19.8595 3.88214 20.8797 4.69847 21.8318C5.24269 22.5119 5.78691 22.92 6.46718 22.92C7.35154 22.92 7.96379 22.3079 8.50801 21.6278C8.54202 21.5938 8.57603 21.5258 8.64406 21.4918C8.61005 21.5598 8.54202 21.6618 8.50801 21.7638C8.37195 22.4439 9.18828 22.988 9.86856 23.2601C10.4128 23.5321 11.025 23.6001 11.5012 23.6001C12.1135 23.6001 12.5897 23.4641 12.8618 23.3961C13.0999 23.3281 13.6101 23.09 14.1543 22.75C14.1883 24.4843 14.1883 26.5246 14.2223 27.0007C14.4264 28.769 14.9026 29.9933 15.787 30.6734C16.4672 31.2175 17.6917 31.2855 17.7597 31.2855C18.9842 31.2855 20.889 30.4693 21.7053 29.1771C22.1135 28.565 22.2496 28.0209 22.3856 27.2728C22.5217 26.8647 22.6577 24.4843 22.7258 24.0082C22.8278 23.2601 22.8958 22.5119 22.9639 21.7978C23.406 21.8998 23.9503 22.0359 24.5625 22.0359C25.6509 22.0359 27.0795 21.2877 27.3516 21.1517C27.8958 20.7436 28.9843 19.7915 28.5081 18.9753C28.236 18.4992 27.8278 18.4992 26.8074 18.6353C26.8074 18.6353 25.1747 18.8393 25.0387 18.7713C24.9366 18.7373 24.8006 18.6353 24.6305 18.4992C24.9707 17.9551 25.3108 17.4111 25.6509 16.935C26.4673 15.3707 26.9435 14.1465 27.2836 13.1943C27.8958 11.494 28.236 10.1338 28.4401 9.18161C28.9163 7.14125 29.0523 6.18908 28.7802 5.10089C28.236 3.19656 26.2632 1.56427 25.4469 1.08819C24.9026 0.816143 23.5421 0 21.5013 0ZM21.5013 1.36024C23.2019 1.36024 24.3584 2.04036 24.9707 2.31241C25.719 2.72048 27.4197 4.08072 27.5557 5.37294C27.6237 6.12107 27.6918 6.8692 27.2156 8.84155C26.9435 9.79372 26.6713 11.0179 26.0591 12.7182C25.719 13.6704 25.3108 14.8266 24.4945 16.2548C24.4605 16.2889 24.4605 16.3229 24.4264 16.3569C24.4945 16.0848 24.5625 15.8468 24.5625 15.8468C24.6986 15.1667 24.6986 14.6226 24.6305 13.8064C24.5625 13.3983 24.4945 12.3782 24.4945 11.9701C24.4945 11.7661 24.6986 9.65769 24.7666 8.90956C24.8346 7.68535 24.0863 6.18908 23.8822 5.91704C22.8618 4.35276 22.3176 3.46861 21.2292 2.58445C20.957 2.34641 20.4808 1.97235 19.8686 1.56427C20.3788 1.46226 20.923 1.36024 21.5013 1.36024ZM15.4808 1.63229C16.3652 1.66629 17.1135 1.90433 17.6917 2.10837C19.1203 2.58445 20.0047 3.33258 20.4128 3.67264C21.2972 4.42077 21.7734 5.16891 22.7938 6.73318C22.8618 6.8692 23.0659 7.20926 23.2019 7.65134C21.8074 7.51532 20.889 8.02541 20.3448 8.50149C19.5285 9.18161 19.5965 10.2018 19.6645 10.9499C19.6645 11.494 19.8006 12.1741 20.821 14.4865C21.2292 15.5067 21.6373 16.5949 22.0455 17.343C22.2496 17.7511 22.5217 18.1592 22.7938 18.4992C22.6237 18.5673 22.4536 18.7033 22.3176 18.8393C21.9094 19.3154 21.8414 19.7915 21.7053 20.6756C21.5693 21.3557 21.4332 22.784 21.3652 23.9402C21.3652 24.4163 21.1611 26.7287 21.0931 27.0687C20.889 27.7489 20.821 28.0889 20.5489 28.497C20.0727 29.2451 18.5761 29.8572 17.6917 29.7892C17.4196 29.7892 17.0114 29.7892 16.6713 29.5172C15.923 28.9731 15.6509 27.7489 15.5829 26.7967C15.5148 26.1166 15.5829 21.2197 15.4468 20.1315C15.3788 19.8595 15.3108 19.1794 14.7665 18.7033C14.5284 18.4992 14.0522 18.3972 13.6101 18.3632C13.6101 18.1252 13.6441 17.9211 13.6781 17.6831C13.7461 17.275 13.8822 17.071 14.0182 16.7309C14.0863 16.5269 14.2223 16.2548 14.3584 15.9148C14.9706 14.0105 14.8346 11.494 14.4944 9.92974C14.4264 9.79372 14.1543 8.70553 13.2019 8.09342C12.1815 7.48131 11.0931 7.82137 10.4808 8.02541C10.2427 8.09342 9.9706 8.19544 9.7325 8.33146C9.76652 8.05941 9.80053 7.75336 9.86856 7.48131C10.1407 6.12107 10.4128 4.96487 11.2971 3.80867C12.2495 2.65246 13.338 1.90433 14.5625 1.7003C14.9026 1.66629 15.2087 1.63229 15.4808 1.63229ZM7.07943 1.76831C7.2495 1.76831 7.38555 1.76831 7.4876 1.76831C8.54202 1.83632 9.56243 2.07436 10.5828 2.48243C10.4468 2.61846 10.3448 2.75448 10.2087 2.92451C9.05223 4.28475 8.78012 5.713 8.50801 7.14125C8.16787 8.84155 8.09984 10.6099 8.37195 12.3782L8.2359 13.6704C8.16787 14.3505 8.03181 15.6427 8.78012 17.003C9.05223 17.4451 9.32434 17.8531 9.66447 18.1592C8.9842 19.0773 8.2359 19.9275 7.4876 20.7436C7.07943 21.2197 6.73929 21.5598 6.46718 21.5598C6.39916 21.5598 6.12704 21.4238 5.71888 20.9477C4.97058 20.1315 4.69847 19.2474 4.56241 18.9073C3.74608 16.4589 3.26989 14.8946 3.20186 14.6906C2.65764 12.5142 2.38553 11.426 2.11342 9.86173C1.77328 7.68535 1.77328 6.59716 1.97737 5.713C2.18145 4.76083 2.52159 4.0127 2.86172 3.46861C3.71207 2.17638 5.99099 1.80232 7.07943 1.76831ZM22.6917 8.94357C22.8958 8.94357 23.1339 8.97757 23.406 9.01158C23.406 9.65769 23.1339 11.63 23.1339 11.9021C23.1339 12.4462 23.27 13.5344 23.27 13.9424C23.338 14.6906 23.338 15.0986 23.27 15.6427C23.27 15.6427 23.1679 16.1188 23.0659 16.4589C22.7598 15.7448 22.3856 14.8946 21.9775 13.9424C20.957 11.63 20.889 11.154 20.889 10.8139C20.889 10.3378 20.889 9.7257 21.2972 9.45366C21.6713 9.1136 22.1475 8.94357 22.6917 8.94357ZM12.1475 9.1136C12.2835 9.1136 12.4196 9.18161 12.5216 9.24962C13.0659 9.52167 13.2019 10.2018 13.2019 10.2018C13.542 11.698 13.6781 13.9424 13.1339 15.4387C13.0659 15.7108 12.9298 15.9148 12.8618 16.1188C12.7257 16.4589 12.5897 16.7989 12.4536 17.4111C12.4196 17.6491 12.4196 17.9211 12.3856 18.1592C11.9094 18.0572 11.4672 17.8871 11.1611 17.6831C10.6169 17.4111 10.2087 16.935 9.93658 16.3909C9.46039 15.3707 9.52842 14.4185 9.59645 13.8744L9.7325 12.3102C9.63046 11.528 9.59645 10.7799 9.59645 9.99775C9.90257 9.7257 10.3107 9.45366 10.889 9.31763C11.2971 9.21561 11.7393 9.07959 12.1475 9.1136ZM22.1815 9.58968C22.0115 9.58968 21.8074 9.62369 21.7053 9.65769C21.4332 9.7257 21.3652 9.7257 21.2972 9.86173C21.2292 9.99775 21.4332 10.2018 21.5013 10.3378C21.5693 10.3378 21.7734 10.5418 22.0455 10.4738C22.2496 10.4058 22.3856 10.2698 22.4536 10.2018C22.5217 10.1338 22.7938 9.79372 22.5897 9.65769C22.5217 9.58968 22.3516 9.55567 22.1815 9.58968ZM11.9774 10.0658C11.9094 10.0658 11.8414 10.0998 11.7733 10.1338C11.7053 10.1338 11.5692 10.2018 11.5012 10.3378C11.4332 10.4738 11.5012 10.6099 11.5692 10.6779C11.7053 10.8819 11.9094 11.0859 12.2495 11.0859C12.3175 11.0859 12.5897 11.0859 12.7937 10.8819C12.7937 10.8819 12.9978 10.6779 12.9978 10.4738C12.9298 10.3378 12.7937 10.2698 12.5897 10.2018C12.4536 10.1678 12.2155 10.0658 11.9774 10.0658ZM10.7529 18.9753C11.1611 19.2134 11.6713 19.3834 12.2155 19.5194C12.0795 19.8255 11.8754 20.0635 11.6373 20.1995C11.1611 20.5396 10.5488 20.7436 9.93658 20.8797C9.80053 20.8797 9.7325 20.9477 9.59645 20.9477C9.25631 21.0497 8.95019 21.1517 8.7461 21.3557C9.39236 20.6416 10.0726 19.8255 10.7529 18.9753ZM23.8482 19.5194C24.1543 19.7575 24.4264 19.8935 24.6986 19.9955C25.1067 20.1315 25.4469 20.1315 26.6714 19.9955C26.4673 20.1995 25.855 20.5396 24.9707 20.6756C24.3924 20.7436 23.6781 20.6076 23.1339 20.4376C23.2019 20.0635 23.236 19.8255 23.338 19.7235C23.372 19.6894 23.6101 19.6214 23.8482 19.5194ZM13.6101 19.7235C13.7461 19.7575 13.8482 19.7575 13.8822 19.7915C14.0182 19.9275 14.0863 20.2676 14.0863 20.4036C14.0863 20.5056 14.0863 20.8116 14.1203 21.0157C13.5761 21.6618 12.6577 22.0359 12.4536 22.1039C12.1815 22.2399 11.3652 22.3759 10.5488 22.1039C11.2291 21.8998 11.9094 21.6958 12.4536 21.2877C12.9298 20.9477 13.338 20.4036 13.6101 19.7235Z" fill="white"/>
</svg>
